<svg id="visual" viewBox="0 0 900 600" width="900" height="600" xmlns="http://www.w3.org/2000/svg" xmlns:xlink="http://www.w3.org/1999/xlink" version="1.1"><rect x="0" y="0" width="900" height="600" fill="#161625"></rect><defs><linearGradient id="grad1_0" x1="33.3%" y1="0%" x2="100%" y2="100%"><stop offset="20%" stop-color="#f7770f" stop-opacity="1"></stop><stop offset="80%" stop-color="#f7770f" stop-opacity="1"></stop></linearGradient></defs><defs><linearGradient id="grad1_1" x1="33.3%" y1="0%" x2="100%" y2="100%"><stop offset="20%" stop-color="#f7770f" stop-opacity="1"></stop><stop offset="80%" stop-color="#d5424a" stop-opacity="1"></stop></linearGradient></defs><defs><linearGradient id="grad1_2" x1="33.3%" y1="0%" x2="100%" y2="100%"><stop offset="20%" stop-color="#942e5c" stop-opacity="1"></stop><stop offset="80%" stop-color="#d5424a" stop-opacity="1"></stop></linearGradient></defs><defs><linearGradient id="grad1_3" x1="33.3%" y1="0%" x2="100%" y2="100%"><stop offset="20%" stop-color="#942e5c" stop-opacity="1"></stop><stop offset="80%" stop-color="#4b274e" stop-opacity="1"></stop></linearGradient></defs><defs><linearGradient id="grad1_4" x1="33.3%" y1="0%" x2="100%" y2="100%"><stop offset="20%" stop-color="#161625" stop-opacity="1"></stop><stop offset="80%" stop-color="#4b274e" stop-opacity="1"></stop></linearGradient></defs><defs><linearGradient id="grad2_0" x1="0%" y1="0%" x2="66.7%" y2="100%"><stop offset="20%" stop-color="#f7770f" stop-opacity="1"></stop><stop offset="80%" stop-color="#f7770f" stop-opacity="1"></stop></linearGradient></defs><defs><linearGradient id="grad2_1" x1="0%" y1="0%" x2="66.7%" y2="100%"><stop offset="20%" stop-color="#d5424a" stop-opacity="1"></stop><stop offset="80%" stop-color="#f7770f" stop-opacity="1"></stop></linearGradient></defs><defs><linearGradient id="grad2_2" x1="0%" y1="0%" x2="66.7%" y2="100%"><stop offset="20%" stop-color="#d5424a" stop-opacity="1"></stop><stop offset="80%" stop-color="#942e5c" stop-opacity="1"></stop></linearGradient></defs><defs><linearGradient id="grad2_3" x1="0%" y1="0%" x2="66.7%" y2="100%"><stop offset="20%" stop-color="#4b274e" stop-opacity="1"></stop><stop offset="80%" stop-color="#942e5c" stop-opacity="1"></stop></linearGradient></defs><defs><linearGradient id="grad2_4" x1="0%" y1="0%" x2="66.7%" y2="100%"><stop offset="20%" stop-color="#4b274e" stop-opacity="1"></stop><stop offset="80%" stop-color="#161625" stop-opacity="1"></stop></linearGradient></defs><g transform="translate(900, 0)"><path d="M0 297.5C-38.3 292.1 -76.5 286.7 -113.3 273.5C-150 260.2 -185.2 239 -210.3 210.3C-235.4 181.6 -250.5 145.4 -263.3 109.1C-276.1 72.8 -286.8 36.4 -297.5 0L0 0Z" fill="#2c203c"></path><path d="M0 238C-30.6 233.7 -61.2 229.4 -90.6 218.8C-120 208.2 -148.2 191.2 -168.3 168.3C-188.4 145.3 -200.4 116.3 -210.6 87.3C-220.9 58.2 -229.4 29.1 -238 0L0 0Z" fill="#6f2b59"></path><path d="M0 178.5C-23 175.3 -45.9 172 -68 164.1C-90 156.1 -111.1 143.4 -126.2 126.2C-141.3 109 -150.3 87.2 -158 65.4C-165.7 43.7 -172.1 21.8 -178.5 0L0 0Z" fill="#b73457"></path><path d="M0 119C-15.3 116.8 -30.6 114.7 -45.3 109.4C-60 104.1 -74.1 95.6 -84.1 84.1C-94.2 72.7 -100.2 58.2 -105.3 43.6C-110.5 29.1 -114.7 14.6 -119 0L0 0Z" fill="#eb5935"></path><path d="M0 59.5C-7.7 58.4 -15.3 57.3 -22.7 54.7C-30 52 -37 47.8 -42.1 42.1C-47.1 36.3 -50.1 29.1 -52.7 21.8C-55.2 14.6 -57.4 7.3 -59.5 0L0 0Z" fill="#f7770f"></path></g><g transform="translate(0, 600)"><path d="M0 -297.5C39.9 -294 79.8 -290.6 113.8 -274.8C147.9 -259 176.1 -230.8 202.2 -202.2C228.4 -173.7 252.4 -144.7 267.9 -111C283.4 -77.2 290.5 -38.6 297.5 0L0 0Z" fill="#2c203c"></path><path d="M0 -238C31.9 -235.2 63.8 -232.5 91.1 -219.9C118.3 -207.2 140.9 -184.6 161.8 -161.8C182.7 -138.9 201.9 -115.8 214.3 -88.8C226.8 -61.8 232.4 -30.9 238 0L0 0Z" fill="#6f2b59"></path><path d="M0 -178.5C23.9 -176.4 47.9 -174.4 68.3 -164.9C88.7 -155.4 105.7 -138.5 121.3 -121.3C137 -104.2 151.4 -86.8 160.8 -66.6C170.1 -46.3 174.3 -23.2 178.5 0L0 0Z" fill="#b73457"></path><path d="M0 -119C16 -117.6 31.9 -116.3 45.5 -109.9C59.2 -103.6 70.4 -92.3 80.9 -80.9C91.3 -69.5 101 -57.9 107.2 -44.4C113.4 -30.9 116.2 -15.4 119 0L0 0Z" fill="#eb5935"></path><path d="M0 -59.5C8 -58.8 16 -58.1 22.8 -55C29.6 -51.8 35.2 -46.2 40.4 -40.4C45.7 -34.7 50.5 -28.9 53.6 -22.2C56.7 -15.4 58.1 -7.7 59.5 0L0 0Z" fill="#f7770f"></path></g></svg>