<svg id="visual" viewBox="0 0 900 600" width="900" height="600" xmlns="http://www.w3.org/2000/svg" xmlns:xlink="http://www.w3.org/1999/xlink" version="1.1"><rect x="0" y="0" width="900" height="600" fill="#161625"></rect><defs><linearGradient id="grad1_0" x1="33.3%" y1="0%" x2="100%" y2="100%"><stop offset="20%" stop-color="#ff0066" stop-opacity="1"></stop><stop offset="80%" stop-color="#ff0066" stop-opacity="1"></stop></linearGradient></defs><defs><linearGradient id="grad1_1" x1="33.3%" y1="0%" x2="100%" y2="100%"><stop offset="20%" stop-color="#ff0066" stop-opacity="1"></stop><stop offset="80%" stop-color="#be1b74" stop-opacity="1"></stop></linearGradient></defs><defs><linearGradient id="grad1_2" x1="33.3%" y1="0%" x2="100%" y2="100%"><stop offset="20%" stop-color="#79296c" stop-opacity="1"></stop><stop offset="80%" stop-color="#be1b74" stop-opacity="1"></stop></linearGradient></defs><defs><linearGradient id="grad1_3" x1="33.3%" y1="0%" x2="100%" y2="100%"><stop offset="20%" stop-color="#79296c" stop-opacity="1"></stop><stop offset="80%" stop-color="#3d254f" stop-opacity="1"></stop></linearGradient></defs><defs><linearGradient id="grad1_4" x1="33.3%" y1="0%" x2="100%" y2="100%"><stop offset="20%" stop-color="#161625" stop-opacity="1"></stop><stop offset="80%" stop-color="#3d254f" stop-opacity="1"></stop></linearGradient></defs><defs><linearGradient id="grad2_0" x1="0%" y1="0%" x2="66.7%" y2="100%"><stop offset="20%" stop-color="#ff0066" stop-opacity="1"></stop><stop offset="80%" stop-color="#ff0066" stop-opacity="1"></stop></linearGradient></defs><defs><linearGradient id="grad2_1" x1="0%" y1="0%" x2="66.7%" y2="100%"><stop offset="20%" stop-color="#be1b74" stop-opacity="1"></stop><stop offset="80%" stop-color="#ff0066" stop-opacity="1"></stop></linearGradient></defs><defs><linearGradient id="grad2_2" x1="0%" y1="0%" x2="66.7%" y2="100%"><stop offset="20%" stop-color="#be1b74" stop-opacity="1"></stop><stop offset="80%" stop-color="#79296c" stop-opacity="1"></stop></linearGradient></defs><defs><linearGradient id="grad2_3" x1="0%" y1="0%" x2="66.7%" y2="100%"><stop offset="20%" stop-color="#3d254f" stop-opacity="1"></stop><stop offset="80%" stop-color="#79296c" stop-opacity="1"></stop></linearGradient></defs><defs><linearGradient id="grad2_4" x1="0%" y1="0%" x2="66.7%" y2="100%"><stop offset="20%" stop-color="#3d254f" stop-opacity="1"></stop><stop offset="80%" stop-color="#161625" stop-opacity="1"></stop></linearGradient></defs><g transform="translate(900, 0)"><path d="M0 486.7C-52.5 442.7 -105.1 398.7 -152.7 368.6C-200.3 338.5 -243 322.3 -297 297C-351 271.7 -416.2 237.3 -449.7 186.3C-483.2 135.3 -485 67.6 -486.7 0L0 0Z" fill="#261e3b"></path><path d="M0 389.4C-42 354.2 -84.1 319 -122.2 294.9C-160.2 270.8 -194.4 257.8 -237.6 237.6C-280.8 217.3 -333 189.8 -359.8 149C-386.6 108.2 -388 54.1 -389.4 0L0 0Z" fill="#59295f"></path><path d="M0 292C-31.5 265.6 -63 239.2 -91.6 221.2C-120.2 203.1 -145.8 193.4 -178.2 178.2C-210.6 163 -249.7 142.4 -269.8 111.8C-289.9 81.2 -291 40.6 -292 0L0 0Z" fill="#9b2473"></path><path d="M0 194.7C-21 177.1 -42 159.5 -61.1 147.5C-80.1 135.4 -97.2 128.9 -118.8 118.8C-140.4 108.7 -166.5 94.9 -179.9 74.5C-193.3 54.1 -194 27.1 -194.7 0L0 0Z" fill="#e00b70"></path><path d="M0 97.3C-10.5 88.5 -21 79.7 -30.5 73.7C-40.1 67.7 -48.6 64.5 -59.4 59.4C-70.2 54.3 -83.2 47.5 -89.9 37.3C-96.6 27.1 -97 13.5 -97.3 0L0 0Z" fill="#ff0066"></path></g><g transform="translate(0, 600)"><path d="M0 -486.7C41.6 -430.6 83.3 -374.4 149.2 -360.3C215.2 -346.2 305.5 -374.1 344.2 -344.2C382.9 -314.3 370.1 -226.6 385.3 -159.6C400.4 -92.6 443.6 -46.3 486.7 0L0 0Z" fill="#261e3b"></path><path d="M0 -389.4C33.3 -344.5 66.6 -299.6 119.4 -288.3C172.2 -276.9 244.4 -299.3 275.3 -275.3C306.3 -251.4 296.1 -181.3 308.2 -127.7C320.3 -74.1 354.9 -37 389.4 0L0 0Z" fill="#59295f"></path><path d="M0 -292C25 -258.4 50 -224.7 89.5 -216.2C129.1 -207.7 183.3 -224.5 206.5 -206.5C229.7 -188.6 222.1 -135.9 231.2 -95.7C240.3 -55.5 266.2 -27.8 292 0L0 0Z" fill="#9b2473"></path><path d="M0 -194.7C16.7 -172.2 33.3 -149.8 59.7 -144.1C86.1 -138.5 122.2 -149.6 137.7 -137.7C153.2 -125.7 148 -90.6 154.1 -63.8C160.2 -37 177.4 -18.5 194.7 0L0 0Z" fill="#e00b70"></path><path d="M0 -97.3C8.3 -86.1 16.7 -74.9 29.8 -72.1C43 -69.2 61.1 -74.8 68.8 -68.8C76.6 -62.9 74 -45.3 77.1 -31.9C80.1 -18.5 88.7 -9.3 97.3 0L0 0Z" fill="#ff0066"></path></g></svg>