<svg id="visual" viewBox="0 0 900 600" width="900" height="600" xmlns="http://www.w3.org/2000/svg" xmlns:xlink="http://www.w3.org/1999/xlink" version="1.1"><rect x="0" y="0" width="900" height="600" fill="#001220"></rect><path d="M0 391L21.5 390.2C43 389.3 86 387.7 128.8 395.8C171.7 404 214.3 422 257.2 416.5C300 411 343 382 385.8 370.7C428.7 359.3 471.3 365.7 514.2 365.8C557 366 600 360 642.8 361.3C685.7 362.7 728.3 371.3 771.2 372.7C814 374 857 368 878.5 365L900 362L900 601L878.5 601C857 601 814 601 771.2 601C728.3 601 685.7 601 642.8 601C600 601 557 601 514.2 601C471.3 601 428.7 601 385.8 601C343 601 300 601 257.2 601C214.3 601 171.7 601 128.8 601C86 601 43 601 21.5 601L0 601Z" fill="#fa7268"></path><path d="M0 399L21.5 408.8C43 418.7 86 438.3 128.8 445.8C171.7 453.3 214.3 448.7 257.2 447.3C300 446 343 448 385.8 452.8C428.7 457.7 471.3 465.3 514.2 462.5C557 459.7 600 446.3 642.8 447.2C685.7 448 728.3 463 771.2 466.5C814 470 857 462 878.5 458L900 454L900 601L878.5 601C857 601 814 601 771.2 601C728.3 601 685.7 601 642.8 601C600 601 557 601 514.2 601C471.3 601 428.7 601 385.8 601C343 601 300 601 257.2 601C214.3 601 171.7 601 128.8 601C86 601 43 601 21.5 601L0 601Z" fill="#ef5f67"></path><path d="M0 490L21.5 486C43 482 86 474 128.8 474.2C171.7 474.3 214.3 482.7 257.2 484.8C300 487 343 483 385.8 481.3C428.7 479.7 471.3 480.3 514.2 484C557 487.7 600 494.3 642.8 495.3C685.7 496.3 728.3 491.7 771.2 492.7C814 493.7 857 500.3 878.5 503.7L900 507L900 601L878.5 601C857 601 814 601 771.2 601C728.3 601 685.7 601 642.8 601C600 601 557 601 514.2 601C471.3 601 428.7 601 385.8 601C343 601 300 601 257.2 601C214.3 601 171.7 601 128.8 601C86 601 43 601 21.5 601L0 601Z" fill="#e34c67"></path><path d="M0 498L21.5 501.3C43 504.7 86 511.3 128.8 514.5C171.7 517.7 214.3 517.3 257.2 517.2C300 517 343 517 385.8 511.5C428.7 506 471.3 495 514.2 496.3C557 497.7 600 511.3 642.8 514.2C685.7 517 728.3 509 771.2 505.8C814 502.7 857 504.3 878.5 505.2L900 506L900 601L878.5 601C857 601 814 601 771.2 601C728.3 601 685.7 601 642.8 601C600 601 557 601 514.2 601C471.3 601 428.7 601 385.8 601C343 601 300 601 257.2 601C214.3 601 171.7 601 128.8 601C86 601 43 601 21.5 601L0 601Z" fill="#d53867"></path><path d="M0 563L21.5 562.5C43 562 86 561 128.8 558.7C171.7 556.3 214.3 552.7 257.2 548.7C300 544.7 343 540.3 385.8 541.8C428.7 543.3 471.3 550.7 514.2 554.2C557 557.7 600 557.3 642.8 556.3C685.7 555.3 728.3 553.7 771.2 554.3C814 555 857 558 878.5 559.5L900 561L900 601L878.5 601C857 601 814 601 771.2 601C728.3 601 685.7 601 642.8 601C600 601 557 601 514.2 601C471.3 601 428.7 601 385.8 601C343 601 300 601 257.2 601C214.3 601 171.7 601 128.8 601C86 601 43 601 21.5 601L0 601Z" fill="#c62368"></path></svg>