<svg id="visual" viewBox="0 0 960 540" width="960" height="540" xmlns="http://www.w3.org/2000/svg" xmlns:xlink="http://www.w3.org/1999/xlink" version="1.1"><rect x="0" y="0" width="960" height="540" fill="#161625"></rect><path d="M0 212L22.8 209.5C45.7 207 91.3 202 137 193.2C182.7 184.3 228.3 171.7 274 170.5C319.7 169.3 365.3 179.7 411.2 189.3C457 199 503 208 548.8 211.5C594.7 215 640.3 213 686 208.8C731.7 204.7 777.3 198.3 823 190C868.7 181.7 914.3 171.3 937.2 166.2L960 161L960 0L937.2 0C914.3 0 868.7 0 823 0C777.3 0 731.7 0 686 0C640.3 0 594.7 0 548.8 0C503 0 457 0 411.2 0C365.3 0 319.7 0 274 0C228.3 0 182.7 0 137 0C91.3 0 45.7 0 22.8 0L0 0Z" fill="#fa7268"></path><path d="M0 173L22.8 163.3C45.7 153.7 91.3 134.3 137 127.5C182.7 120.7 228.3 126.3 274 132.3C319.7 138.3 365.3 144.7 411.2 150.3C457 156 503 161 548.8 155C594.7 149 640.3 132 686 132.2C731.7 132.3 777.3 149.7 823 155C868.7 160.3 914.3 153.7 937.2 150.3L960 147L960 0L937.2 0C914.3 0 868.7 0 823 0C777.3 0 731.7 0 686 0C640.3 0 594.7 0 548.8 0C503 0 457 0 411.2 0C365.3 0 319.7 0 274 0C228.3 0 182.7 0 137 0C91.3 0 45.7 0 22.8 0L0 0Z" fill="#ef5f67"></path><path d="M0 121L22.8 116.7C45.7 112.3 91.3 103.7 137 106C182.7 108.3 228.3 121.7 274 130C319.7 138.3 365.3 141.7 411.2 139.7C457 137.7 503 130.3 548.8 129.5C594.7 128.7 640.3 134.3 686 132.7C731.7 131 777.3 122 823 113C868.7 104 914.3 95 937.2 90.5L960 86L960 0L937.2 0C914.3 0 868.7 0 823 0C777.3 0 731.7 0 686 0C640.3 0 594.7 0 548.8 0C503 0 457 0 411.2 0C365.3 0 319.7 0 274 0C228.3 0 182.7 0 137 0C91.3 0 45.7 0 22.8 0L0 0Z" fill="#e34c67"></path><path d="M0 80L22.8 77.3C45.7 74.7 91.3 69.3 137 66C182.7 62.7 228.3 61.3 274 67.5C319.7 73.7 365.3 87.3 411.2 91C457 94.7 503 88.3 548.8 86.2C594.7 84 640.3 86 686 80.8C731.7 75.7 777.3 63.3 823 59.7C868.7 56 914.3 61 937.2 63.5L960 66L960 0L937.2 0C914.3 0 868.7 0 823 0C777.3 0 731.7 0 686 0C640.3 0 594.7 0 548.8 0C503 0 457 0 411.2 0C365.3 0 319.7 0 274 0C228.3 0 182.7 0 137 0C91.3 0 45.7 0 22.8 0L0 0Z" fill="#d53867"></path><path d="M0 29L22.8 34.8C45.7 40.7 91.3 52.3 137 58.5C182.7 64.7 228.3 65.3 274 65.5C319.7 65.7 365.3 65.3 411.2 61.7C457 58 503 51 548.8 48.2C594.7 45.3 640.3 46.7 686 47.2C731.7 47.7 777.3 47.3 823 45C868.7 42.7 914.3 38.3 937.2 36.2L960 34L960 0L937.2 0C914.3 0 868.7 0 823 0C777.3 0 731.7 0 686 0C640.3 0 594.7 0 548.8 0C503 0 457 0 411.2 0C365.3 0 319.7 0 274 0C228.3 0 182.7 0 137 0C91.3 0 45.7 0 22.8 0L0 0Z" fill="#c62368"></path></svg>