<svg xmlns="http://www.w3.org/2000/svg" xmlns:xlink="http://www.w3.org/1999/xlink" id="visual" width="900" height="600" version="1.1" viewBox="0 0 900 600"><rect width="900" height="600" x="0" y="0" fill="#001220"/><path fill="#fa7268" d="M0 387L21.5 381C43 375 86 363 128.8 368.8C171.7 374.7 214.3 398.3 257.2 412.3C300 426.3 343 430.7 385.8 423.3C428.7 416 471.3 397 514.2 396C557 395 600 412 642.8 415.5C685.7 419 728.3 409 771.2 405.8C814 402.7 857 406.3 878.5 408.2L900 410L900 601L878.5 601C857 601 814 601 771.2 601C728.3 601 685.7 601 642.8 601C600 601 557 601 514.2 601C471.3 601 428.7 601 385.8 601C343 601 300 601 257.2 601C214.3 601 171.7 601 128.8 601C86 601 43 601 21.5 601L0 601Z"/><path fill="#ef5f67" d="M0 396L21.5 403.8C43 411.7 86 427.3 128.8 434C171.7 440.7 214.3 438.3 257.2 431.2C300 424 343 412 385.8 411C428.7 410 471.3 420 514.2 426C557 432 600 434 642.8 436.7C685.7 439.3 728.3 442.7 771.2 437.7C814 432.7 857 419.3 878.5 412.7L900 406L900 601L878.5 601C857 601 814 601 771.2 601C728.3 601 685.7 601 642.8 601C600 601 557 601 514.2 601C471.3 601 428.7 601 385.8 601C343 601 300 601 257.2 601C214.3 601 171.7 601 128.8 601C86 601 43 601 21.5 601L0 601Z"/><path fill="#e34c67" d="M0 446L21.5 447.7C43 449.3 86 452.7 128.8 463.2C171.7 473.7 214.3 491.3 257.2 494.5C300 497.7 343 486.3 385.8 480.2C428.7 474 471.3 473 514.2 470C557 467 600 462 642.8 468C685.7 474 728.3 491 771.2 488.5C814 486 857 464 878.5 453L900 442L900 601L878.5 601C857 601 814 601 771.2 601C728.3 601 685.7 601 642.8 601C600 601 557 601 514.2 601C471.3 601 428.7 601 385.8 601C343 601 300 601 257.2 601C214.3 601 171.7 601 128.8 601C86 601 43 601 21.5 601L0 601Z"/><path fill="#d53867" d="M0 501L21.5 503.2C43 505.3 86 509.7 128.8 511.7C171.7 513.7 214.3 513.3 257.2 510.3C300 507.3 343 501.7 385.8 504C428.7 506.3 471.3 516.7 514.2 521.7C557 526.7 600 526.3 642.8 526.7C685.7 527 728.3 528 771.2 530.7C814 533.3 857 537.7 878.5 539.8L900 542L900 601L878.5 601C857 601 814 601 771.2 601C728.3 601 685.7 601 642.8 601C600 601 557 601 514.2 601C471.3 601 428.7 601 385.8 601C343 601 300 601 257.2 601C214.3 601 171.7 601 128.8 601C86 601 43 601 21.5 601L0 601Z"/><path fill="#c62368" d="M0 560L21.5 556.2C43 552.3 86 544.7 128.8 546C171.7 547.3 214.3 557.7 257.2 563.3C300 569 343 570 385.8 568.3C428.7 566.7 471.3 562.3 514.2 558.3C557 554.3 600 550.7 642.8 549C685.7 547.3 728.3 547.7 771.2 551.3C814 555 857 562 878.5 565.5L900 569L900 601L878.5 601C857 601 814 601 771.2 601C728.3 601 685.7 601 642.8 601C600 601 557 601 514.2 601C471.3 601 428.7 601 385.8 601C343 601 300 601 257.2 601C214.3 601 171.7 601 128.8 601C86 601 43 601 21.5 601L0 601Z"/></svg>