<svg id="visual" viewBox="0 0 900 600" width="900" height="600" xmlns="http://www.w3.org/2000/svg" xmlns:xlink="http://www.w3.org/1999/xlink" version="1.1"><rect x="0" y="0" width="900" height="600" fill="#001220"></rect><path d="M0 442L21.5 439.5C43 437 86 432 128.8 431.3C171.7 430.7 214.3 434.3 257.2 430.8C300 427.3 343 416.7 385.8 404.8C428.7 393 471.3 380 514.2 378.5C557 377 600 387 642.8 393.8C685.7 400.7 728.3 404.3 771.2 397.3C814 390.3 857 372.7 878.5 363.8L900 355L900 601L878.5 601C857 601 814 601 771.2 601C728.3 601 685.7 601 642.8 601C600 601 557 601 514.2 601C471.3 601 428.7 601 385.8 601C343 601 300 601 257.2 601C214.3 601 171.7 601 128.8 601C86 601 43 601 21.5 601L0 601Z" fill="#fa7268"></path><path d="M0 459L21.5 452.3C43 445.7 86 432.3 128.8 426C171.7 419.7 214.3 420.3 257.2 423.8C300 427.3 343 433.7 385.8 437.5C428.7 441.3 471.3 442.7 514.2 434.8C557 427 600 410 642.8 406C685.7 402 728.3 411 771.2 416.8C814 422.7 857 425.3 878.5 426.7L900 428L900 601L878.5 601C857 601 814 601 771.2 601C728.3 601 685.7 601 642.8 601C600 601 557 601 514.2 601C471.3 601 428.7 601 385.8 601C343 601 300 601 257.2 601C214.3 601 171.7 601 128.8 601C86 601 43 601 21.5 601L0 601Z" fill="#ef5f67"></path><path d="M0 454L21.5 451.5C43 449 86 444 128.8 446C171.7 448 214.3 457 257.2 458.2C300 459.3 343 452.7 385.8 456C428.7 459.3 471.3 472.7 514.2 472.3C557 472 600 458 642.8 455C685.7 452 728.3 460 771.2 461.7C814 463.3 857 458.7 878.5 456.3L900 454L900 601L878.5 601C857 601 814 601 771.2 601C728.3 601 685.7 601 642.8 601C600 601 557 601 514.2 601C471.3 601 428.7 601 385.8 601C343 601 300 601 257.2 601C214.3 601 171.7 601 128.8 601C86 601 43 601 21.5 601L0 601Z" fill="#e34c67"></path><path d="M0 537L21.5 531.8C43 526.7 86 516.3 128.8 511.5C171.7 506.7 214.3 507.3 257.2 512.3C300 517.3 343 526.7 385.8 525.8C428.7 525 471.3 514 514.2 513.8C557 513.7 600 524.3 642.8 525.3C685.7 526.3 728.3 517.7 771.2 516.7C814 515.7 857 522.3 878.5 525.7L900 529L900 601L878.5 601C857 601 814 601 771.2 601C728.3 601 685.7 601 642.8 601C600 601 557 601 514.2 601C471.3 601 428.7 601 385.8 601C343 601 300 601 257.2 601C214.3 601 171.7 601 128.8 601C86 601 43 601 21.5 601L0 601Z" fill="#d53867"></path><path d="M0 544L21.5 542.3C43 540.7 86 537.3 128.8 541.2C171.7 545 214.3 556 257.2 562.5C300 569 343 571 385.8 564.8C428.7 558.7 471.3 544.3 514.2 539.5C557 534.7 600 539.3 642.8 543.7C685.7 548 728.3 552 771.2 557C814 562 857 568 878.5 571L900 574L900 601L878.5 601C857 601 814 601 771.2 601C728.3 601 685.7 601 642.8 601C600 601 557 601 514.2 601C471.3 601 428.7 601 385.8 601C343 601 300 601 257.2 601C214.3 601 171.7 601 128.8 601C86 601 43 601 21.5 601L0 601Z" fill="#c62368"></path></svg>